<?xml version="1.0" encoding="UTF-8" standalone="no"?>
<!-- Created with Inkscape (http://www.inkscape.org/) -->

<svg
   xmlns:dc="http://purl.org/dc/elements/1.1/"
   xmlns:cc="http://creativecommons.org/ns#"
   xmlns:rdf="http://www.w3.org/1999/02/22-rdf-syntax-ns#"
   xmlns:svg="http://www.w3.org/2000/svg"
   xmlns="http://www.w3.org/2000/svg"
   xmlns:sodipodi="http://sodipodi.sourceforge.net/DTD/sodipodi-0.dtd"
   xmlns:inkscape="http://www.inkscape.org/namespaces/inkscape"
   width="516.71429"
   height="516.71429"
   id="svg3002"
   version="1.1"
   inkscape:version="0.48.4 r9939"
   sodipodi:docname="favicon.svg"
   inkscape:export-filename="/home/befi/blog/contents/raster/icon-256.png"
   inkscape:export-xdpi="44.549999"
   inkscape:export-ydpi="44.549999">
  <defs
     id="defs3004">
    <clipPath
       clipPathUnits="userSpaceOnUse"
       id="clipPath4772">
      <rect
         style="fill:none;stroke:none"
         id="rect4774"
         width="517.14288"
         height="517.14288"
         x="92.301323"
         y="347.25879" />
    </clipPath>
    <clipPath
       clipPathUnits="userSpaceOnUse"
       id="clipPath4861">
      <rect
         style="fill:none;stroke:none"
         id="rect4863"
         width="517.14288"
         height="517.14288"
         x="73.729897"
         y="369.54453" />
    </clipPath>
  </defs>
  <sodipodi:namedview
     id="base"
     pagecolor="#ffffff"
     bordercolor="#666666"
     borderopacity="1.0"
     inkscape:pageopacity="0.0"
     inkscape:pageshadow="2"
     inkscape:zoom="0.7"
     inkscape:cx="509.87663"
     inkscape:cy="205.84019"
     inkscape:document-units="px"
     inkscape:current-layer="layer1"
     showgrid="false"
     inkscape:window-width="1600"
     inkscape:window-height="828"
     inkscape:window-x="479"
     inkscape:window-y="1425"
     inkscape:window-maximized="1"
     fit-margin-top="0"
     fit-margin-left="0"
     fit-margin-right="0"
     fit-margin-bottom="0" />
  <metadata
     id="metadata3007">
    <rdf:RDF>
      <cc:Work
         rdf:about="">
        <dc:format>image/svg+xml</dc:format>
        <dc:type
           rdf:resource="http://purl.org/dc/dcmitype/StillImage" />
        <dc:title></dc:title>
      </cc:Work>
    </rdf:RDF>
  </metadata>
  <g
     inkscape:groupmode="layer"
     id="layer4"
     inkscape:label="bg">
    <rect
       style="fill:#f9f9f9;stroke:none;fill-opacity:1"
       id="rect4866"
       width="517.14288"
       height="517.14288"
       x="0"
       y="-0.9999913" />
  </g>
  <g
     inkscape:label="Layer 1"
     inkscape:groupmode="layer"
     id="layer1"
     transform="translate(-92.301324,-349.97308)">
    <path
       style="fill:#205590;fill-opacity:1;fill-rule:evenodd;stroke:#000000;stroke-width:12.79737091;stroke-opacity:0"
       d="m 229.36382,409.09651 c -0.65591,0.0113 -1.32114,0.0335 -1.96875,0.0937 -18.13225,1.68906 -33.52522,9.4592 -46.84375,22.96875 -15.22138,15.44021 -23.03125,34.18316 -23.03125,56 0,21.64962 7.80987,40.36142 23.03125,55.96875 15.22111,15.60795 32.98774,23.37521 54,23.375 l 18.84375,0 0,-0.3125 98.375,0 -66.59375,74.75 -8.15625,0 0,0.0625 -42.46875,0 c -21.01226,2.1e-4 -38.77889,7.76739 -54,23.375 -15.22138,15.60774 -23.03125,34.08114 -23.03125,55.5625 0,21.9851 7.80987,40.56017 23.03125,56 15.22111,15.43993 33.27268,23.34375 54.78125,23.34375 21.50829,0 39.96602,-7.66544 55.1875,-22.9375 15.38651,-15.43977 23.03091,-34.11217 23.03125,-55.59375 l 0,-42.6875 73.46875,0 0,42.6875 c -2.8e-4,21.48158 7.80964,40.15398 23.03125,55.59375 15.38642,15.27206 33.67871,22.9375 55.1875,22.9375 21.67337,0 40.13128,-7.90382 55.1875,-23.34375 15.22088,-15.43983 22.65575,-34.0149 22.65625,-56 -5e-4,-21.48136 -7.43537,-39.95476 -22.65625,-55.5625 -15.05622,-15.60761 -33.19785,-23.37479 -54.375,-23.375 l -42.09375,0 0,-0.0625 -36.9375,0 0,0.0625 -44.75,0 66.75,-74.8125 27.21875,0 0,0.3125 29.8125,0 c 21.17715,2.1e-4 39.31878,-7.76705 54.375,-23.375 15.22088,-15.60733 22.65575,-34.31913 22.65625,-55.96875 -5e-4,-21.81684 -7.43537,-40.55979 -22.65625,-56 -15.05622,-15.4394 -33.51413,-22.96825 -55.1875,-22.96875 -21.50879,5e-4 -39.80108,7.52935 -55.1875,22.96875 -15.22161,15.27237 -23.03153,33.7063 -23.03125,55.1875 l 0,42.6875 -73.46875,0 0,-42.6875 c -3.4e-4,-21.4812 -7.64474,-39.91513 -23.03125,-55.1875 -15.22148,-15.4394 -33.67921,-22.96825 -55.1875,-22.96875 -2.01637,6e-5 -4.00103,-0.1276 -5.96875,-0.0937 z m 5.96875,37.15625 c 11.41594,3.4e-4 21.26794,4.27696 29.375,12.5 8.10687,8.05597 12.31241,17.82669 12.3125,29.40625 l 0,41.875 -41.28125,0 c -11.41607,2.1e-4 -21.26819,-3.87016 -29.375,-12.09375 -8.10713,-8.22313 -11.93759,-18.20107 -11.9375,-29.78125 -9e-5,-11.57956 3.83037,-21.35028 11.9375,-29.40625 8.10681,-8.22304 17.71809,-12.49966 28.96875,-12.5 z m 229.90625,0 c 11.41564,3.4e-4 21.05795,4.27696 29,12.5 8.10659,8.05597 12.31219,17.82669 12.3125,29.40625 -3.1e-4,11.58018 -4.20591,21.55812 -12.3125,29.78125 -8.10744,8.22359 -17.74978,12.09396 -29,12.09375 l -41.28125,0 0,-41.875 c -3.4e-4,-11.57956 3.79879,-21.35028 11.90625,-29.40625 8.10657,-8.22304 17.95862,-12.49966 29.375,-12.5 z m -229.5,232.8125 41.28125,0 0,42.28125 c -9e-5,11.41206 -4.20563,21.18291 -12.3125,29.40625 -8.10706,8.22341 -17.71847,12.09375 -28.96875,12.09375 -11.41607,0 -21.26819,-3.87034 -29.375,-12.09375 -8.10713,-8.22334 -11.93759,-18.23248 -11.9375,-29.8125 -9e-5,-11.41185 3.83037,-21.18281 11.9375,-29.40625 8.10681,-8.22328 17.95893,-12.46866 29.375,-12.46875 z m 188.21875,0 41.28125,0 c 11.25022,9e-5 20.89256,4.24547 29,12.46875 8.10659,8.22344 12.31219,17.9944 12.3125,29.40625 -3.1e-4,11.58002 -4.20591,21.58916 -12.3125,29.8125 -7.94205,8.22341 -17.58436,12.09375 -29,12.09375 -11.41638,0 -21.26843,-3.87034 -29.375,-12.09375 -8.10746,-8.22334 -11.90659,-17.99419 -11.90625,-29.40625 l 0,-42.28125 z"
       id="path17"
       inkscape:connector-curvature="0" />
  </g>
</svg>
